PathFileType	4	(X/Y/Z)	D:\TRACE\v60_Jaco2_6-2-23\BothDRS_Motion3_8-platform.trc
DataRate	CameraRate	NumFrames	NumMarkers	Units	OrigDataRate	OrigDataStartFrame	OrigNumFrames
100.00	100.00	      73	5	mm	100.00	6126	      7000
Frame#	Time	Left_Front			Right_Front			Left_Aft			Right_Aft			Post			
		X1	Y1	Z1	X2	Y2	Z2	X3	Y3	Z3	X4	Y4	Z4	X5	Y5	Z5	

6126	61.250	-779.57935	21.42262	-648.01013	791.09308	19.35001	-625.13232	-710.31262	3.75897	488.25974	704.01697	-0.30827	591.24646	15.41358	1323.69495	-939.55109	
6127	61.260	-779.20837	20.83814	-648.11920	791.26129	19.07535	-625.29907	-710.16199	3.99570	488.21542	704.22705	-0.08765	591.11475	15.46925	1323.22412	-940.20007	
6128	61.270	-779.00092	20.37761	-648.22272	791.41357	18.79149	-625.37964	-709.91681	4.28912	488.17444	704.50818	0.14289	591.01685	15.44404	1322.76843	-940.87958	
6129	61.280	-778.91248	20.04417	-648.32123	791.55933	18.40604	-625.46979	-709.72321	4.61655	488.08926	704.74365	0.40694	590.96075	15.56231	1322.34668	-941.61975	
6130	61.290	-778.78113	19.71192	-648.40430	791.75946	18.27531	-625.64209	-709.54956	4.81699	487.90024	704.84851	0.50946	590.89270	15.96680	1321.88330	-942.30298	
6131	61.300	-778.53394	19.35282	-648.46649	791.99731	17.96513	-625.70886	-709.38953	4.91078	487.84839	704.85455	0.77468	590.82050	16.32056	1321.33801	-942.56610	
6132	61.310	-778.34558	19.15539	-648.55365	792.23413	17.52514	-625.81238	-709.23938	5.05651	487.79550	705.18353	1.21599	590.79297	16.31458	1320.74939	-943.24316	
6133	61.320	-778.13751	18.86004	-648.71503	792.28760	17.24493	-625.88568	-709.03455	5.28850	487.76364	705.44611	1.43793	590.72021	16.54385	1320.43042	-943.76990	
6134	61.330	-778.03821	18.59218	-648.74371	792.57660	17.02882	-625.98871	-708.74304	5.54314	487.70447	705.52997	1.59467	590.66040	16.97292	1320.19250	-944.64160	
6135	61.340	-777.99548	18.39988	-648.92322	792.69995	16.85836	-626.04694	-708.49298	5.70286	487.63428	705.70233	1.82641	590.61108	17.04537	1319.87183	-945.56580	
6136	61.350	-777.93060	18.24091	-649.05646	792.80255	16.51267	-626.14014	-708.31091	5.84612	487.65668	705.75281	1.93251	590.53009	17.21521	1319.55164	-946.23657	
6137	61.360	-777.84998	18.13868	-649.04370	792.86188	16.23434	-626.12103	-708.15143	5.98548	487.67770	705.04633	1.39118	590.63715	17.38206	1319.17566	-946.51788	
6138	61.370	-777.54095	17.94053	-649.01379	792.99402	16.11200	-626.15338	-708.00714	6.12151	487.74420	705.83295	2.09920	590.63165	17.57672	1318.70068	-947.28900	
6139	61.380	-777.30988	17.65759	-649.01440	793.15741	16.01014	-626.26868	-707.92822	6.17045	487.69891	706.16980	2.33988	590.59332	17.69789	1318.43494	-947.70795	
6140	61.390	-777.19653	17.57154	-649.12433	793.32745	15.84571	-626.27264	-707.67322	6.22630	487.62085	706.35779	2.54333	590.47632	17.88064	1318.33118	-948.04010	
6141	61.400	-777.12042	17.50881	-649.21997	793.48602	15.64130	-626.28625	-707.78784	6.41329	487.57993	706.51062	2.70933	590.35834	17.88577	1318.20447	-948.22449	
6142	61.410	-776.94153	17.27030	-649.13373	793.68524	15.53347	-626.16833	-707.72528	6.50008	487.52988	706.44989	2.77959	590.41461	17.89268	1318.02539	-948.44910	
6143	61.420	-776.62909	16.99610	-649.01031	793.79144	15.40037	-626.18420	-707.72632	6.73599	487.41409	706.61975	2.89323	590.42682	17.92059	1317.90234	-948.40924	
6144	61.430	-776.48010	16.76458	-648.91681	793.87823	15.19877	-626.13428	-707.65790	6.90090	487.33820	706.70868	2.98083	590.36041	18.18848	1317.66077	-948.44104	
6145	61.440	-776.45648	16.71041	-648.98230	793.93024	15.03144	-626.23889	-707.56506	6.99290	487.28500	706.75348	3.05011	590.28711	18.24943	1317.47021	-948.53326	
6146	61.450	-776.48615	16.61184	-649.07709	794.04785	14.98227	-626.14056	-707.42535	7.05054	487.28091	706.78046	3.19729	590.11914	18.31009	1317.22534	-948.67145	
6147	61.460	-776.45166	16.49520	-649.05060	794.12286	14.91137	-626.13672	-707.27838	7.12433	487.36453	706.78937	3.28011	590.12030	18.34908	1316.95886	-948.88495	
6148	61.470	-776.31213	16.42834	-648.95404	794.19843	14.77700	-626.15814	-707.09326	7.07591	487.43417	706.85565	3.30255	590.13458	18.33186	1316.84949	-949.07703	
6149	61.480	-776.28894	16.40166	-648.95526	794.23828	14.77993	-626.19281	-706.89197	7.02369	487.43475	707.01746	3.33012	590.18372	18.31619	1316.75366	-949.26190	
6150	61.490	-776.23584	16.39059	-648.97211	794.26978	14.79657	-626.23486	-706.89655	7.08827	487.40222	707.03412	3.29426	590.19275	18.27501	1316.68127	-949.72345	
6151	61.500	-776.23657	16.38894	-648.96277	794.25690	14.73948	-626.31262	-706.82050	7.09750	487.43335	706.99084	3.24493	590.20038	18.28294	1316.64807	-950.17279	
6152	61.510	-776.25696	16.41207	-648.94983	794.31683	14.80819	-626.17432	-706.85242	7.12053	487.38882	707.13147	3.44536	590.06372	18.27145	1316.63098	-950.41791	
6153	61.520	-776.27167	16.42622	-648.95190	794.31006	14.79025	-626.16589	-706.92053	7.15903	487.39297	707.14117	3.43621	590.06067	18.28218	1316.60657	-950.46826	
6154	61.530	-776.25568	16.39507	-648.98901	794.29767	14.78812	-626.16248	-706.92236	7.08200	487.40170	707.15601	3.41018	590.04742	18.27151	1316.67993	-950.48932	
6155	61.540	-776.22778	16.40322	-648.93298	794.30792	14.76795	-626.29102	-706.85327	7.03548	487.43726	707.21222	3.39416	590.09845	18.31377	1316.72339	-950.48334	
6156	61.550	-776.21570	16.40336	-648.96405	794.34888	14.80050	-626.26447	-706.81396	7.04793	487.44336	707.16107	3.35789	590.04645	18.32149	1316.72119	-950.38562	
6157	61.560	-776.22711	16.41815	-648.94275	794.34717	14.80917	-626.28821	-706.86322	7.12880	487.43588	707.22015	3.39227	590.07764	18.33853	1316.76965	-950.17444	
6158	61.570	-776.24884	16.43121	-648.94366	794.34564	14.85737	-626.19983	-706.85327	7.04073	487.42886	707.20270	3.31666	590.05377	18.25545	1316.78479	-949.78339	
6159	61.580	-776.23682	16.42127	-648.94696	794.31989	14.86134	-626.16577	-706.95099	7.03469	487.40549	707.21246	3.30676	590.06366	18.38562	1316.81604	-949.28516	
6160	61.590	-776.29712	16.60927	-648.96503	794.33960	14.90885	-626.11700	-706.96960	7.03342	487.44678	707.23438	3.26872	590.08661	18.51255	1317.00977	-949.02429	
6161	61.600	-776.28802	16.61409	-648.93726	794.37616	15.01296	-626.09851	-706.93964	7.01705	487.41489	707.27344	3.21031	590.11871	18.61401	1317.23169	-948.78137	
6162	61.610	-776.30426	16.68751	-648.95679	794.44049	15.17147	-626.11334	-706.93201	6.88918	487.46478	707.35120	3.16612	590.19037	18.66747	1317.40576	-948.55420	
6163	61.620	-776.35364	16.85412	-648.96350	794.39343	15.23848	-626.16687	-706.99280	6.75750	487.52121	707.25134	3.02906	590.31952	18.64603	1317.61279	-948.38074	
6164	61.630	-776.36285	16.98542	-648.99078	794.32709	15.42759	-626.11853	-707.10388	6.52304	487.56174	707.26532	2.95256	590.37775	18.46080	1317.89685	-948.12225	
6165	61.640	-776.47003	17.22390	-648.97235	794.19885	15.61569	-626.09760	-707.28986	6.38422	487.57809	707.15674	2.81687	590.40118	18.27025	1318.13074	-948.02740	
6166	61.650	-776.77252	17.59330	-648.91406	794.00385	15.92363	-626.08154	-707.49457	6.24491	487.64630	706.87268	2.59684	590.47620	18.18485	1318.41028	-947.85913	
6167	61.660	-776.87805	17.85109	-648.80530	793.72577	16.20471	-626.16003	-707.42700	6.09266	487.67175	706.71967	2.31275	590.45886	18.16172	1318.80103	-947.44403	
6168	61.670	-777.07416	18.15509	-648.78058	793.54724	16.34759	-626.09570	-707.59674	6.03849	487.69452	706.49567	2.06975	590.51086	17.81413	1319.25757	-946.91797	
6169	61.680	-777.24316	18.28572	-648.74323	793.38257	16.28476	-626.03693	-707.79565	5.93328	487.72644	706.28821	1.90850	590.60754	17.51081	1319.71216	-946.36316	
6170	61.690	-777.50433	18.42270	-648.84015	793.16412	16.25872	-626.03485	-708.10791	5.89492	487.72729	706.10522	1.76236	590.65570	17.50816	1319.84265	-945.68359	
6171	61.700	-777.68945	18.62197	-648.82996	792.99762	16.93061	-626.01654	-708.14526	5.62284	487.69568	706.04114	1.66016	590.66565	17.61366	1320.05127	-944.91199	
6172	61.710	-777.75812	18.84993	-648.79407	792.93835	17.05941	-625.94696	-708.40179	5.45735	487.67334	705.96600	1.58874	590.73798	17.51939	1320.23254	-944.28052	
6173	61.720	-777.92761	19.04676	-648.72180	792.79565	17.18539	-625.90210	-708.59186	5.33845	487.79474	705.77081	1.42211	590.76752	16.83218	1320.54675	-943.48724	
6174	61.730	-778.12024	19.12158	-648.60669	792.60846	17.36245	-625.85846	-708.80493	5.07900	487.80902	705.48267	1.19254	590.79779	16.59670	1320.92651	-942.89111	
6175	61.740	-778.23303	19.26453	-648.53265	792.36456	17.62734	-625.82745	-709.09412	4.96069	487.86041	705.19818	0.94622	590.59094	16.40291	1321.20898	-942.40125	
6176	61.750	-778.37762	19.46415	-648.46307	792.13641	17.85765	-625.62823	-709.48279	5.11201	487.73312	704.80432	0.56170	590.73004	16.46334	1321.39954	-942.27124	
6177	61.760	-778.32733	20.01728	-648.26068	791.86267	18.05765	-625.62506	-709.69934	5.18492	487.92841	704.61481	0.24622	590.75153	16.16084	1321.86230	-942.00812	
6178	61.770	-778.78107	20.22420	-648.28442	791.62109	18.43324	-625.50391	-709.90491	4.98245	487.98996	704.45026	0.07114	590.80450	15.76119	1322.45020	-941.69171	
6179	61.780	-779.12823	20.35382	-648.20038	791.47119	18.75660	-625.38342	-710.06433	4.65879	488.08105	704.33807	-0.03153	590.93170	15.48841	1322.92529	-941.29913	
6180	61.790	-779.40155	20.73302	-648.05005	791.25775	19.06292	-625.29144	-710.36700	4.30354	488.17609	703.87976	-0.33578	590.92151	15.32720	1323.32214	-940.75543	
6181	61.800	-779.76678	21.40794	-647.97083	790.98615	19.23672	-625.16095	-710.63660	4.06187	488.24890	703.49084	-0.64375	591.01978	15.04822	1323.75452	-940.13440	
6182	61.810	-779.94562	21.79755	-647.87415	790.66602	19.55120	-625.07971	-710.87103	4.06951	488.27966	703.34637	-0.87994	591.29401	14.91022	1324.10449	-939.64154	
6183	61.820	-780.10870	21.93957	-647.77216	790.51862	19.90041	-624.90521	-711.11200	3.97162	488.33362	703.33685	-1.02379	591.44812	14.95727	1324.74329	-938.60834	
6184	61.830	-780.33496	22.14186	-647.83105	790.16968	20.06248	-625.06140	-711.44525	3.89382	488.34985	703.23956	-1.11969	591.43652	14.04920	1325.12085	-937.51410	
6185	61.840	-780.65100	22.37702	-648.02240	789.93292	20.18510	-625.04272	-711.66156	3.68430	488.39349	702.90796	-1.19271	591.50836	13.87163	1325.26575	-936.94928	
6186	61.850	-780.83691	22.62121	-648.08331	789.54193	20.50536	-624.99835	-711.97870	3.38336	488.40686	702.57520	-1.27189	591.46210	13.71689	1325.44238	-936.07819	
6187	61.860	-781.11255	22.84554	-647.94293	789.16327	20.86331	-624.99005	-712.39032	3.12775	488.52811	702.12921	-1.53859	591.48254	13.45008	1325.66846	-935.21973	
6188	61.870	-781.61511	23.21637	-647.74109	788.89978	21.13532	-624.90509	-712.39941	2.93497	488.63721	701.68176	-2.13426	591.91394	13.15075	1326.26001	-934.33191	
6189	61.880	-781.89392	23.47674	-647.50824	788.59766	21.44079	-624.82159	-712.60126	2.77151	488.72495	701.52441	-2.32168	591.67395	13.08715	1326.77454	-933.73346	
6190	61.890	-782.37531	23.95383	-647.31781	788.61816	21.77709	-624.72418	-712.78906	2.40013	488.65753	701.19507	-2.58315	591.69891	12.70860	1327.27917	-933.20221	
6191	61.900	-782.54639	24.09624	-647.22736	788.22546	22.18500	-624.58575	-713.12500	2.14166	488.75473	700.95654	-2.81255	591.72021	12.14396	1327.57886	-932.82257	
6192	61.910	-782.65466	24.15307	-647.16815	787.98413	22.37499	-624.46002	-713.40472	1.72984	488.89243	700.89044	-3.06749	591.83075	11.84730	1328.01208	-932.28900	
6193	61.920	-782.81940	24.35240	-647.08075	787.74756	22.63287	-624.37201	-713.63104	1.47066	488.97507	700.81268	-3.14435	591.94958	11.48219	1328.55493	-931.67731	
6194	61.930	-783.02118	24.66417	-647.12543	787.51984	22.92233	-624.26703	-714.02209	1.48600	488.99817	700.51056	-3.40385	592.07587	11.35788	1329.01233	-931.32147	
6195	61.940	-783.36005	24.82177	-647.10187	787.28766	23.13898	-624.19879	-714.35016	1.53741	488.96182	699.84503	-3.73618	592.10577	11.08701	1329.35522	-930.89612	
6196	61.950	-783.78967	25.20748	-646.87866	786.89404	23.37779	-624.16467	-714.59430	1.09476	489.17746	699.18939	-4.08165	592.20044	10.88420	1329.93188	-930.39374	
6197	61.960	-784.10730	25.41250	-647.01025	786.51886	23.60760	-624.20422	-714.89484	0.85381	489.27438	699.01007	-4.22025	592.20599	10.59276	1330.20044	-929.42694	
6198	61.970	-784.43195	25.79289	-646.92584	786.14520	23.82663	-624.17627	-715.04272	0.63793	489.34525	698.45288	-4.97953	591.82916	10.19077	1330.34167	-928.81403	
